# xmcd CD database file
#
# Track frame offsets:
#	150
#	18072
#	36070
#
# Disc length: 510 seconds
#
# Revision: 0
# Processed by: cddbd v1.5.1PL2 Copyright (c) Steve Scherf et al.
# Submitted via: CDex 1.51
#
DISCID=1401fc03
DTITLE=AAA - Friday Party
DYEAR=2005
DGENRE=JPop
TTITLE0=Friday Party
TTITLE1=Friday Party (Instrumental)
TTITLE2=シークレットトラック
EXTD=YEAR: 2005
EXTT0=
EXTT1=
EXTT2=
PLAYORDER=
